<svg
   xmlns="http://www.w3.org/2000/svg"
   viewBox="0 0 258.09866 233.82668"
   height="233.82668"
   width="258.09866"
   xml:space="preserve"
   id="svg2"
   version="1.1"><defs
     id="defs6"><clipPath
       id="clipPath18"
       clipPathUnits="userSpaceOnUse"><path
         id="path16"
         d="M 0,175.37 H 193.574 V 0 H 0 Z" /></clipPath></defs><g
     transform="matrix(1.3333333,0,0,-1.3333333,0,233.82667)"
     id="g10"><g
       id="g12"><g
         clip-path="url(#clipPath18)"
         id="g14"><g
           transform="translate(36.0181,134.0302)"
           id="g20"><path
             id="path22"
             style="fill:none;stroke:#000000;stroke-width:0.75;stroke-linecap:round;stroke-linejoin:round;stroke-miterlimit:10;stroke-dasharray:none;stroke-opacity:1"
             d="m 0,0 c 1.13,-0.566 2.258,-1.138 3.392,-1.697 13.197,-6.516 26.395,-13.032 39.596,-19.541 1.086,-0.535 1.89,-1.324 2.503,-2.37 7.901,-13.474 15.814,-26.941 23.724,-40.41 0.184,-0.313 0.381,-0.619 0.572,-0.929 0.298,-0.486 0.429,-0.989 -0.033,-1.437 -0.426,-0.413 -0.903,-0.614 -1.521,-0.308 -1.621,0.803 -3.259,1.572 -4.894,2.347 -10.316,4.891 -20.633,9.781 -30.952,14.666 -10.282,4.868 -20.567,9.729 -30.852,14.592 -0.211,0.099 -0.432,0.176 -0.739,0.093 1.039,-0.581 2.073,-1.171 3.116,-1.744 11.005,-6.041 22.015,-12.073 33.015,-18.121 12.687,-6.977 25.364,-13.974 38.055,-20.946 1.101,-0.605 1.909,-1.45 2.537,-2.519 3.026,-5.15 6.071,-10.29 9.091,-15.444 7.061,-12.05 14.113,-24.106 21.167,-36.159 0.122,-0.209 0.251,-0.415 0.358,-0.631 0.84,-1.708 -0.063,-3.315 -1.969,-3.446 -0.76,-0.052 -1.531,-0.019 -2.292,0.036 -1.605,0.116 -3.223,0.171 -4.804,0.442 -1.208,0.207 -2.461,0.528 -3.53,1.107 -5.871,3.178 -11.692,6.452 -17.531,9.693 -9.814,5.447 -19.63,10.892 -29.443,16.342 -10.234,5.684 -20.465,11.374 -30.699,17.058 -8.407,4.668 -16.817,9.33 -25.225,13.997 -7.738,4.295 -15.48,8.583 -23.209,12.895 -1.539,0.858 -2.23,2.285 -2.296,4.009 -0.108,2.833 -0.182,5.666 -0.256,8.5 -0.112,4.331 -0.181,8.664 -0.326,12.994 -0.193,5.746 -0.436,11.49 -0.666,17.235 -0.254,6.31 -0.508,12.62 -0.778,18.93 -0.283,6.594 -0.585,13.188 -0.878,19.783 -0.085,1.901 -0.185,3.801 -0.248,5.703 -0.049,1.49 0.414,2.793 1.554,3.795 1.908,1.678 3.82,3.353 5.743,5.014 0.959,0.829 2.113,1.148 3.354,1.16 1.449,0.015 2.899,0.012 4.348,0.002 1.766,-0.012 3.378,-0.638 4.988,-1.282 11.901,-4.755 23.801,-9.509 35.71,-14.242 1.378,-0.547 2.38,-1.441 3.101,-2.728 3.117,-5.564 6.253,-11.118 9.381,-16.677 1.98,-3.518 3.959,-7.036 5.931,-10.558 0.296,-0.527 0.614,-1.054 0.817,-1.619 0.458,-1.277 -0.284,-2.329 -1.637,-2.245 -0.703,0.044 -1.416,0.286 -2.079,0.554 -4.283,1.73 -8.553,3.495 -12.829,5.242 C 15.3,-5.976 8.232,-3.093 1.164,-0.212 0.807,-0.066 0.439,0.053 0.077,0.184 0.051,0.123 0.026,0.061 0,0 Z" /></g><g
           transform="translate(36.0181,134.0302)"
           id="g24"><path
             id="path26"
             style="fill-opacity:1;fill-rule:nonzero;stroke:none"
             d="m 0,0 c 1.13,-0.566 2.258,-1.138 3.392,-1.697 13.197,-6.516 26.395,-13.032 39.596,-19.541 1.086,-0.535 1.89,-1.324 2.503,-2.37 7.901,-13.474 15.814,-26.941 23.724,-40.41 0.184,-0.313 0.381,-0.619 0.572,-0.929 0.298,-0.486 0.429,-0.989 -0.033,-1.437 -0.426,-0.413 -0.903,-0.614 -1.521,-0.308 -1.621,0.803 -3.259,1.572 -4.894,2.347 -10.316,4.891 -20.633,9.781 -30.952,14.666 -10.282,4.868 -20.567,9.729 -30.852,14.592 -0.211,0.099 -0.432,0.176 -0.739,0.093 1.039,-0.581 2.073,-1.171 3.116,-1.744 11.005,-6.041 22.015,-12.073 33.015,-18.121 12.687,-6.977 25.364,-13.974 38.055,-20.946 1.101,-0.605 1.909,-1.45 2.537,-2.519 3.026,-5.15 6.071,-10.29 9.091,-15.444 7.061,-12.05 14.113,-24.106 21.167,-36.159 0.122,-0.209 0.251,-0.415 0.358,-0.631 0.84,-1.708 -0.063,-3.315 -1.969,-3.446 -0.76,-0.052 -1.531,-0.019 -2.292,0.036 -1.605,0.116 -3.223,0.171 -4.804,0.442 -1.208,0.207 -2.461,0.528 -3.53,1.107 -5.871,3.178 -11.692,6.452 -17.531,9.693 -9.814,5.447 -19.63,10.892 -29.443,16.342 -10.234,5.684 -20.465,11.374 -30.699,17.058 -8.407,4.668 -16.817,9.33 -25.225,13.997 -7.738,4.295 -15.48,8.583 -23.209,12.895 -1.539,0.858 -2.23,2.285 -2.296,4.009 -0.108,2.833 -0.182,5.666 -0.256,8.5 -0.112,4.331 -0.181,8.664 -0.326,12.994 -0.193,5.746 -0.436,11.49 -0.666,17.235 -0.254,6.31 -0.508,12.62 -0.778,18.93 -0.283,6.594 -0.585,13.188 -0.878,19.783 -0.085,1.901 -0.185,3.801 -0.248,5.703 -0.049,1.49 0.414,2.793 1.554,3.795 1.908,1.678 3.82,3.353 5.743,5.014 0.959,0.829 2.113,1.148 3.354,1.16 1.449,0.015 2.899,0.012 4.348,0.002 1.766,-0.012 3.378,-0.638 4.988,-1.282 11.901,-4.755 23.801,-9.509 35.71,-14.242 1.378,-0.547 2.38,-1.441 3.101,-2.728 3.117,-5.564 6.253,-11.118 9.381,-16.677 1.98,-3.518 3.959,-7.036 5.931,-10.558 0.296,-0.527 0.614,-1.054 0.817,-1.619 0.458,-1.277 -0.284,-2.329 -1.637,-2.245 -0.703,0.044 -1.416,0.286 -2.079,0.554 -4.283,1.73 -8.553,3.495 -12.829,5.242 C 15.3,-5.976 8.232,-3.093 1.164,-0.212 0.807,-0.066 0.439,0.053 0.077,0.184 0.051,0.123 0.026,0.061 0,0" /></g><g
           transform="translate(157.3002,41.5388)"
           id="g28"><path
             id="path30"
             style="fill:none;stroke:#000000;stroke-width:0.75;stroke-linecap:round;stroke-linejoin:round;stroke-miterlimit:10;stroke-dasharray:none;stroke-opacity:1"
             d="m 0,0 c -1.869,0.924 -3.738,1.849 -5.608,2.771 -12.089,5.956 -24.169,11.929 -36.278,17.844 -1.666,0.814 -2.9,1.924 -3.831,3.525 -5.356,9.214 -10.752,18.404 -16.138,27.601 -2.447,4.18 -4.9,8.356 -7.351,12.534 -0.143,0.244 -0.383,0.477 -0.409,0.732 -0.043,0.413 -0.099,0.994 0.13,1.222 0.277,0.277 0.88,0.425 1.275,0.334 0.652,-0.149 1.252,-0.529 1.87,-0.821 18.939,-8.953 37.878,-17.906 56.815,-26.862 2.797,-1.322 5.588,-2.658 8.383,-3.984 0.24,-0.113 0.493,-0.198 0.805,-0.145 -2.02,1.121 -4.036,2.248 -6.061,3.36 -10.262,5.632 -20.531,11.253 -30.79,16.891 -12.445,6.84 -24.88,13.698 -37.326,20.536 -1.241,0.681 -2.165,1.627 -2.88,2.847 -9.978,17.03 -19.969,34.053 -29.955,51.078 -0.184,0.313 -0.357,0.634 -0.517,0.96 -0.745,1.523 -0.371,2.556 1.197,3.179 0.399,0.159 0.862,0.245 1.29,0.227 2.21,-0.091 4.428,-0.138 6.623,-0.382 1.089,-0.121 2.225,-0.466 3.186,-0.993 7.972,-4.372 15.906,-8.813 23.854,-13.227 8.407,-4.668 16.82,-9.326 25.226,-13.995 10.094,-5.606 20.183,-11.22 30.276,-16.828 11.432,-6.351 22.865,-12.7 34.299,-19.048 4.011,-2.227 8.011,-4.473 12.044,-6.66 2.133,-1.158 3.059,-2.866 3.106,-5.314 0.171,-8.987 0.413,-17.974 0.705,-26.958 0.281,-8.619 0.638,-17.235 1,-25.85 0.272,-6.472 0.612,-12.941 0.908,-19.412 0.156,-3.397 0.285,-6.796 0.421,-10.194 0.056,-1.374 -0.398,-2.56 -1.422,-3.474 -1.927,-1.718 -3.881,-3.405 -5.823,-5.106 -0.923,-0.809 -2.006,-1.167 -3.218,-1.171 -1.127,-0.004 -2.259,0.057 -3.38,-0.031 -3.068,-0.241 -5.704,1.122 -8.418,2.201 -11.089,4.408 -22.172,8.83 -33.262,13.234 -1.438,0.571 -2.519,1.469 -3.29,2.848 -5.205,9.301 -10.444,18.583 -15.675,27.869 -0.466,0.828 -0.934,1.66 -0.241,2.581 0.585,0.778 1.412,0.925 2.749,0.385 5.4,-2.184 10.788,-4.399 16.18,-6.603 6.211,-2.539 12.422,-5.08 18.634,-7.617 0.252,-0.103 0.515,-0.178 0.773,-0.265 C -0.083,-0.121 -0.041,-0.06 0,0 Z" /></g><g
           transform="translate(157.3002,41.5388)"
           id="g32"><path
             id="path34"
             style="fill-opacity:1;fill-rule:nonzero;stroke:none"
             d="m 0,0 c -1.869,0.924 -3.738,1.849 -5.608,2.771 -12.089,5.956 -24.169,11.929 -36.278,17.844 -1.666,0.814 -2.9,1.924 -3.831,3.525 -5.356,9.214 -10.752,18.404 -16.138,27.601 -2.447,4.18 -4.9,8.356 -7.351,12.534 -0.143,0.244 -0.383,0.477 -0.409,0.732 -0.043,0.413 -0.099,0.994 0.13,1.222 0.277,0.277 0.88,0.425 1.275,0.334 0.652,-0.149 1.252,-0.529 1.87,-0.821 18.939,-8.953 37.878,-17.906 56.815,-26.862 2.797,-1.322 5.588,-2.658 8.383,-3.984 0.24,-0.113 0.493,-0.198 0.805,-0.145 -2.02,1.121 -4.036,2.248 -6.061,3.36 -10.262,5.632 -20.531,11.253 -30.79,16.891 -12.445,6.84 -24.88,13.698 -37.326,20.536 -1.241,0.681 -2.165,1.627 -2.88,2.847 -9.978,17.03 -19.969,34.053 -29.955,51.078 -0.184,0.313 -0.357,0.634 -0.517,0.96 -0.745,1.523 -0.371,2.556 1.197,3.179 0.399,0.159 0.862,0.245 1.29,0.227 2.21,-0.091 4.428,-0.138 6.623,-0.382 1.089,-0.121 2.225,-0.466 3.186,-0.993 7.972,-4.372 15.906,-8.813 23.854,-13.227 8.407,-4.668 16.82,-9.326 25.226,-13.995 10.094,-5.606 20.183,-11.22 30.276,-16.828 11.432,-6.351 22.865,-12.7 34.299,-19.048 4.011,-2.227 8.011,-4.473 12.044,-6.66 2.133,-1.158 3.059,-2.866 3.106,-5.314 0.171,-8.987 0.413,-17.974 0.705,-26.958 0.281,-8.619 0.638,-17.235 1,-25.85 0.272,-6.472 0.612,-12.941 0.908,-19.412 0.156,-3.397 0.285,-6.796 0.421,-10.194 0.056,-1.374 -0.398,-2.56 -1.422,-3.474 -1.927,-1.718 -3.881,-3.405 -5.823,-5.106 -0.923,-0.809 -2.006,-1.167 -3.218,-1.171 -1.127,-0.004 -2.259,0.057 -3.38,-0.031 -3.068,-0.241 -5.704,1.122 -8.418,2.201 -11.089,4.408 -22.172,8.83 -33.262,13.234 -1.438,0.571 -2.519,1.469 -3.29,2.848 -5.205,9.301 -10.444,18.583 -15.675,27.869 -0.466,0.828 -0.934,1.66 -0.241,2.581 0.585,0.778 1.412,0.925 2.749,0.385 5.4,-2.184 10.788,-4.399 16.18,-6.603 6.211,-2.539 12.422,-5.08 18.634,-7.617 0.252,-0.103 0.515,-0.178 0.773,-0.265 C -0.083,-0.121 -0.041,-0.06 0,0" /></g></g></g></g>
</svg>